<?xml version="1.0" encoding="UTF-8"?>
<svg xmlns="http://www.w3.org/2000/svg" width="1200" height="900" viewBox="0 0 1200 900" role="img" aria-labelledby="title desc">
  <title id="title">Fried Rice with Pork</title>
  <desc id="desc">Generated recipe cover for Fried Rice with Pork.</desc>
  <defs>
    <linearGradient id="bg" x1="0" y1="0" x2="1" y2="1">
      <stop offset="0%" stop-color="#73421f"/>
      <stop offset="100%" stop-color="#d6a55c"/>
    </linearGradient>
    <linearGradient id="panelGlow" x1="0" y1="0" x2="1" y2="0">
      <stop offset="0%" stop-color="#f0c1ad" stop-opacity="0.78"/>
      <stop offset="100%" stop-color="#f2d185" stop-opacity="0.18"/>
    </linearGradient>
    <filter id="shadow" x="-20%" y="-20%" width="140%" height="140%">
      <feDropShadow dx="0" dy="18" stdDeviation="24" flood-color="rgba(31, 17, 8, 0.42)"/>
    </filter>
  </defs>

  <rect width="1200" height="900" rx="48" fill="url(#bg)"/>
  <rect x="42" y="42" width="1116" height="816" rx="36" fill="none" stroke="rgba(255, 246, 228, 0.22)" stroke-width="2"/>

  <g opacity="0.16">
    <circle cx="202" cy="405" r="11" fill="#f0c1ad" opacity="0.42"/><circle cx="203" cy="406" r="12" fill="#f0c1ad" opacity="0.21"/><circle cx="204" cy="407" r="13" fill="#f0c1ad" opacity="0.28"/><circle cx="205" cy="408" r="14" fill="#f0c1ad" opacity="0.35"/><circle cx="206" cy="409" r="15" fill="#f0c1ad" opacity="0.42"/><circle cx="207" cy="410" r="16" fill="#f0c1ad" opacity="0.21"/><circle cx="208" cy="411" r="6" fill="#f0c1ad" opacity="0.28"/><circle cx="209" cy="412" r="7" fill="#f0c1ad" opacity="0.35"/><circle cx="210" cy="413" r="8" fill="#f0c1ad" opacity="0.42"/><circle cx="211" cy="414" r="9" fill="#f0c1ad" opacity="0.21"/><circle cx="233" cy="436" r="9" fill="#f0c1ad" opacity="0.28"/><circle cx="234" cy="437" r="10" fill="#f0c1ad" opacity="0.35"/><circle cx="235" cy="438" r="11" fill="#f0c1ad" opacity="0.42"/><circle cx="236" cy="439" r="12" fill="#f0c1ad" opacity="0.21"/><circle cx="237" cy="440" r="13" fill="#f0c1ad" opacity="0.28"/><circle cx="238" cy="441" r="14" fill="#f0c1ad" opacity="0.35"/>
  </g>

  <g transform="translate(820 170) rotate(9)" filter="url(#shadow)">
    <ellipse cx="0" cy="0" rx="210" ry="160" fill="url(#panelGlow)"/>
    <ellipse cx="0" cy="0" rx="138" ry="104" fill="rgba(46, 24, 9, 0.30)"/>
    <path d="M -92 0 C -48 -78, 52 -74, 96 0 C 46 70, -44 82, -92 0 Z" fill="#f0c1ad" opacity="0.72"/>
    <path d="M -38 -60 C 20 -48, 58 18, 14 64 C -44 56, -72 -10, -38 -60 Z" fill="#f2d185" opacity="0.52"/>
  </g>

  <circle cx="925" cy="275" r="104" fill="#f0c1ad" opacity="0.12"/>
  <circle cx="1007" cy="528" r="148" fill="#f2d185" opacity="0.10"/>

  <g filter="url(#shadow)">
    <rect x="72" y="108" width="268" height="52" rx="26" fill="rgba(46, 24, 9, 0.30)"/>
    <text x="102" y="141" font-family="'Trebuchet MS', 'Segoe UI', sans-serif" font-size="26" font-weight="700" fill="#fff7e5">RICE</text>

    <rect x="72" y="671" width="304" height="58" rx="29" fill="#f0c1ad"/>
    <text x="104" y="708" font-family="'Trebuchet MS', 'Segoe UI', sans-serif" font-size="28" font-weight="700" fill="#2f1a0f">PORK</text>
  </g>

  <g transform="translate(78 214)">
    <text font-family="Georgia, 'Times New Roman', serif" font-size="82" font-weight="700" fill="#fff7e5">
      <tspan x="0" dy="0">Fried Rice with</tspan><tspan x="0" dy="86">Pork</tspan>
    </text>
    <text x="0" y="446" font-family="'Trebuchet MS', 'Segoe UI', sans-serif" font-size="28" fill="rgba(255, 247, 229, 0.84)">Prep 20 min | Cook 20 min | Serves 2</text>
    <text x="0" y="498" font-family="'Trebuchet MS', 'Segoe UI', sans-serif" font-size="24" fill="rgba(255, 247, 229, 0.84)">Style: Fried Rice | Rating 4.9</text>
  </g>
</svg>
