<?xml version="1.0" encoding="UTF-8"?>
<svg xmlns="http://www.w3.org/2000/svg" width="1200" height="900" viewBox="0 0 1200 900" role="img" aria-labelledby="title desc">
  <title id="title">Fried Rice with Tofu</title>
  <desc id="desc">Generated recipe cover for Fried Rice with Tofu.</desc>
  <defs>
    <linearGradient id="bg" x1="0" y1="0" x2="1" y2="1">
      <stop offset="0%" stop-color="#73421f"/>
      <stop offset="100%" stop-color="#d6a55c"/>
    </linearGradient>
    <linearGradient id="panelGlow" x1="0" y1="0" x2="1" y2="0">
      <stop offset="0%" stop-color="#ede1b0" stop-opacity="0.78"/>
      <stop offset="100%" stop-color="#f2d185" stop-opacity="0.18"/>
    </linearGradient>
    <filter id="shadow" x="-20%" y="-20%" width="140%" height="140%">
      <feDropShadow dx="0" dy="18" stdDeviation="24" flood-color="rgba(31, 17, 8, 0.42)"/>
    </filter>
  </defs>

  <rect width="1200" height="900" rx="48" fill="url(#bg)"/>
  <rect x="42" y="42" width="1116" height="816" rx="36" fill="none" stroke="rgba(255, 246, 228, 0.22)" stroke-width="2"/>

  <g opacity="0.16">
    <circle cx="149" cy="726" r="13" fill="#ede1b0" opacity="0.4"/><circle cx="150" cy="727" r="14" fill="#ede1b0" opacity="0.19"/><circle cx="151" cy="728" r="15" fill="#ede1b0" opacity="0.26"/><circle cx="152" cy="729" r="16" fill="#ede1b0" opacity="0.33"/><circle cx="153" cy="730" r="6" fill="#ede1b0" opacity="0.4"/><circle cx="154" cy="731" r="7" fill="#ede1b0" opacity="0.19"/><circle cx="155" cy="732" r="8" fill="#ede1b0" opacity="0.26"/><circle cx="156" cy="733" r="9" fill="#ede1b0" opacity="0.33"/><circle cx="157" cy="734" r="10" fill="#ede1b0" opacity="0.4"/><circle cx="158" cy="735" r="11" fill="#ede1b0" opacity="0.19"/><circle cx="180" cy="757" r="11" fill="#ede1b0" opacity="0.26"/><circle cx="181" cy="758" r="12" fill="#ede1b0" opacity="0.33"/><circle cx="182" cy="759" r="13" fill="#ede1b0" opacity="0.4"/><circle cx="183" cy="760" r="14" fill="#ede1b0" opacity="0.19"/><circle cx="184" cy="761" r="15" fill="#ede1b0" opacity="0.26"/><circle cx="185" cy="762" r="16" fill="#ede1b0" opacity="0.33"/>
  </g>

  <g transform="translate(820 170) rotate(9)" filter="url(#shadow)">
    <ellipse cx="0" cy="0" rx="210" ry="160" fill="url(#panelGlow)"/>
    <ellipse cx="0" cy="0" rx="138" ry="104" fill="rgba(46, 24, 9, 0.30)"/>
    <path d="M -92 0 C -48 -78, 52 -74, 96 0 C 46 70, -44 82, -92 0 Z" fill="#ede1b0" opacity="0.72"/>
    <path d="M -38 -60 C 20 -48, 58 18, 14 64 C -44 56, -72 -10, -38 -60 Z" fill="#f2d185" opacity="0.52"/>
  </g>

  <circle cx="866" cy="128" r="104" fill="#ede1b0" opacity="0.12"/>
  <circle cx="948" cy="469" r="148" fill="#f2d185" opacity="0.10"/>

  <g filter="url(#shadow)">
    <rect x="72" y="108" width="268" height="52" rx="26" fill="rgba(46, 24, 9, 0.30)"/>
    <text x="102" y="141" font-family="'Trebuchet MS', 'Segoe UI', sans-serif" font-size="26" font-weight="700" fill="#fff7e5">RICE</text>

    <rect x="72" y="642" width="304" height="58" rx="29" fill="#ede1b0"/>
    <text x="104" y="679" font-family="'Trebuchet MS', 'Segoe UI', sans-serif" font-size="28" font-weight="700" fill="#2f1a0f">TOFU</text>
  </g>

  <g transform="translate(78 214)">
    <text font-family="Georgia, 'Times New Roman', serif" font-size="82" font-weight="700" fill="#fff7e5">
      <tspan x="0" dy="0">Fried Rice with</tspan><tspan x="0" dy="86">Tofu</tspan>
    </text>
    <text x="0" y="446" font-family="'Trebuchet MS', 'Segoe UI', sans-serif" font-size="28" fill="rgba(255, 247, 229, 0.84)">Prep 24 min | Cook 10 min | Serves 3</text>
    <text x="0" y="498" font-family="'Trebuchet MS', 'Segoe UI', sans-serif" font-size="24" fill="rgba(255, 247, 229, 0.84)">Style: Fried Rice | Rating 4.3</text>
  </g>
</svg>
