<?xml version="1.0" encoding="UTF-8"?>
<svg xmlns="http://www.w3.org/2000/svg" width="1200" height="900" viewBox="0 0 1200 900" role="img" aria-labelledby="title desc">
  <title id="title">Fried Rice with Squid</title>
  <desc id="desc">Generated recipe cover for Fried Rice with Squid.</desc>
  <defs>
    <linearGradient id="bg" x1="0" y1="0" x2="1" y2="1">
      <stop offset="0%" stop-color="#73421f"/>
      <stop offset="100%" stop-color="#d6a55c"/>
    </linearGradient>
    <linearGradient id="panelGlow" x1="0" y1="0" x2="1" y2="0">
      <stop offset="0%" stop-color="#d7dfee" stop-opacity="0.78"/>
      <stop offset="100%" stop-color="#f2d185" stop-opacity="0.18"/>
    </linearGradient>
    <filter id="shadow" x="-20%" y="-20%" width="140%" height="140%">
      <feDropShadow dx="0" dy="18" stdDeviation="24" flood-color="rgba(31, 17, 8, 0.42)"/>
    </filter>
  </defs>

  <rect width="1200" height="900" rx="48" fill="url(#bg)"/>
  <rect x="42" y="42" width="1116" height="816" rx="36" fill="none" stroke="rgba(255, 246, 228, 0.22)" stroke-width="2"/>

  <g opacity="0.16">
    <circle cx="171" cy="111" r="14" fill="#d7dfee" opacity="0.28"/><circle cx="172" cy="112" r="15" fill="#d7dfee" opacity="0.35"/><circle cx="173" cy="113" r="16" fill="#d7dfee" opacity="0.42"/><circle cx="174" cy="114" r="6" fill="#d7dfee" opacity="0.21"/><circle cx="175" cy="115" r="7" fill="#d7dfee" opacity="0.28"/><circle cx="176" cy="116" r="8" fill="#d7dfee" opacity="0.35"/><circle cx="177" cy="117" r="9" fill="#d7dfee" opacity="0.42"/><circle cx="178" cy="118" r="10" fill="#d7dfee" opacity="0.21"/><circle cx="179" cy="119" r="11" fill="#d7dfee" opacity="0.28"/><circle cx="180" cy="120" r="12" fill="#d7dfee" opacity="0.35"/><circle cx="202" cy="142" r="12" fill="#d7dfee" opacity="0.42"/><circle cx="203" cy="143" r="13" fill="#d7dfee" opacity="0.21"/><circle cx="204" cy="144" r="14" fill="#d7dfee" opacity="0.28"/><circle cx="205" cy="145" r="15" fill="#d7dfee" opacity="0.35"/><circle cx="206" cy="146" r="16" fill="#d7dfee" opacity="0.42"/><circle cx="207" cy="147" r="6" fill="#d7dfee" opacity="0.21"/>
  </g>

  <g transform="translate(820 170) rotate(4)" filter="url(#shadow)">
    <ellipse cx="0" cy="0" rx="210" ry="160" fill="url(#panelGlow)"/>
    <ellipse cx="0" cy="0" rx="138" ry="104" fill="rgba(46, 24, 9, 0.30)"/>
    <path d="M -92 0 C -48 -78, 52 -74, 96 0 C 46 70, -44 82, -92 0 Z" fill="#d7dfee" opacity="0.72"/>
    <path d="M -38 -60 C 20 -48, 58 18, 14 64 C -44 56, -72 -10, -38 -60 Z" fill="#f2d185" opacity="0.52"/>
  </g>

  <circle cx="975" cy="116" r="104" fill="#d7dfee" opacity="0.12"/>
  <circle cx="1057" cy="578" r="148" fill="#f2d185" opacity="0.10"/>

  <g filter="url(#shadow)">
    <rect x="72" y="108" width="268" height="52" rx="26" fill="rgba(46, 24, 9, 0.30)"/>
    <text x="102" y="141" font-family="'Trebuchet MS', 'Segoe UI', sans-serif" font-size="26" font-weight="700" fill="#fff7e5">RICE</text>

    <rect x="72" y="634" width="304" height="58" rx="29" fill="#d7dfee"/>
    <text x="104" y="671" font-family="'Trebuchet MS', 'Segoe UI', sans-serif" font-size="28" font-weight="700" fill="#2f1a0f">SQUID</text>
  </g>

  <g transform="translate(78 214)">
    <text font-family="Georgia, 'Times New Roman', serif" font-size="82" font-weight="700" fill="#fff7e5">
      <tspan x="0" dy="0">Fried Rice with</tspan><tspan x="0" dy="86">Squid</tspan>
    </text>
    <text x="0" y="446" font-family="'Trebuchet MS', 'Segoe UI', sans-serif" font-size="28" fill="rgba(255, 247, 229, 0.84)">Prep 21 min | Cook 14 min | Serves 3</text>
    <text x="0" y="498" font-family="'Trebuchet MS', 'Segoe UI', sans-serif" font-size="24" fill="rgba(255, 247, 229, 0.84)">Style: Fried Rice | Rating 4.2</text>
  </g>
</svg>
