<?xml version="1.0" encoding="UTF-8"?>
<svg xmlns="http://www.w3.org/2000/svg" width="1200" height="900" viewBox="0 0 1200 900" role="img" aria-labelledby="title desc">
  <title id="title">Stir-fried Sweet &amp; Sour with Chicken</title>
  <desc id="desc">Generated recipe cover for Stir-fried Sweet &amp; Sour with Chicken.</desc>
  <defs>
    <linearGradient id="bg" x1="0" y1="0" x2="1" y2="1">
      <stop offset="0%" stop-color="#7a2f20"/>
      <stop offset="100%" stop-color="#d88a44"/>
    </linearGradient>
    <linearGradient id="panelGlow" x1="0" y1="0" x2="1" y2="0">
      <stop offset="0%" stop-color="#f3d7ab" stop-opacity="0.78"/>
      <stop offset="100%" stop-color="#f6d3a2" stop-opacity="0.18"/>
    </linearGradient>
    <filter id="shadow" x="-20%" y="-20%" width="140%" height="140%">
      <feDropShadow dx="0" dy="18" stdDeviation="24" flood-color="rgba(27, 10, 5, 0.45)"/>
    </filter>
  </defs>

  <rect width="1200" height="900" rx="48" fill="url(#bg)"/>
  <rect x="42" y="42" width="1116" height="816" rx="36" fill="none" stroke="rgba(255, 245, 233, 0.22)" stroke-width="2"/>

  <g opacity="0.16">
    <circle cx="284" cy="541" r="15" fill="#f3d7ab" opacity="0.41"/><circle cx="285" cy="542" r="16" fill="#f3d7ab" opacity="0.2"/><circle cx="286" cy="543" r="6" fill="#f3d7ab" opacity="0.27"/><circle cx="287" cy="544" r="7" fill="#f3d7ab" opacity="0.34"/><circle cx="288" cy="545" r="8" fill="#f3d7ab" opacity="0.41"/><circle cx="289" cy="546" r="9" fill="#f3d7ab" opacity="0.2"/><circle cx="290" cy="547" r="10" fill="#f3d7ab" opacity="0.27"/><circle cx="291" cy="548" r="11" fill="#f3d7ab" opacity="0.34"/><circle cx="292" cy="549" r="12" fill="#f3d7ab" opacity="0.41"/><circle cx="293" cy="550" r="13" fill="#f3d7ab" opacity="0.2"/><circle cx="315" cy="572" r="13" fill="#f3d7ab" opacity="0.27"/><circle cx="316" cy="573" r="14" fill="#f3d7ab" opacity="0.34"/><circle cx="317" cy="574" r="15" fill="#f3d7ab" opacity="0.41"/><circle cx="318" cy="575" r="16" fill="#f3d7ab" opacity="0.2"/><circle cx="319" cy="576" r="6" fill="#f3d7ab" opacity="0.27"/><circle cx="320" cy="577" r="7" fill="#f3d7ab" opacity="0.34"/>
  </g>

  <g transform="translate(820 170) rotate(-3)" filter="url(#shadow)">
    <ellipse cx="0" cy="0" rx="210" ry="160" fill="url(#panelGlow)"/>
    <ellipse cx="0" cy="0" rx="138" ry="104" fill="rgba(35, 15, 10, 0.34)"/>
    <path d="M -92 0 C -48 -78, 52 -74, 96 0 C 46 70, -44 82, -92 0 Z" fill="#f3d7ab" opacity="0.72"/>
    <path d="M -38 -60 C 20 -48, 58 18, 14 64 C -44 56, -72 -10, -38 -60 Z" fill="#f6d3a2" opacity="0.52"/>
  </g>

  <circle cx="791" cy="162" r="104" fill="#f3d7ab" opacity="0.12"/>
  <circle cx="873" cy="394" r="148" fill="#f6d3a2" opacity="0.10"/>

  <g filter="url(#shadow)">
    <rect x="72" y="108" width="268" height="52" rx="26" fill="rgba(35, 15, 10, 0.34)"/>
    <text x="102" y="141" font-family="'Trebuchet MS', 'Segoe UI', sans-serif" font-size="26" font-weight="700" fill="#fff5ea">STIR-FRY</text>

    <rect x="72" y="672" width="304" height="58" rx="29" fill="#f3d7ab"/>
    <text x="104" y="709" font-family="'Trebuchet MS', 'Segoe UI', sans-serif" font-size="28" font-weight="700" fill="#2f1a0f">CHICKEN</text>
  </g>

  <g transform="translate(78 214)">
    <text font-family="Georgia, 'Times New Roman', serif" font-size="82" font-weight="700" fill="#fff5ea">
      <tspan x="0" dy="0">Stir-fried Sweet &amp;</tspan><tspan x="0" dy="86">Sour with Chicken</tspan>
    </text>
    <text x="0" y="446" font-family="'Trebuchet MS', 'Segoe UI', sans-serif" font-size="28" fill="rgba(255, 245, 233, 0.86)">Prep 23 min | Cook 20 min | Serves 3</text>
    <text x="0" y="498" font-family="'Trebuchet MS', 'Segoe UI', sans-serif" font-size="24" fill="rgba(255, 245, 233, 0.86)">Style: Sweet &amp; Sour | Rating 4.6</text>
  </g>
</svg>
