<?xml version="1.0" encoding="UTF-8"?>
<svg xmlns="http://www.w3.org/2000/svg" width="1200" height="900" viewBox="0 0 1200 900" role="img" aria-labelledby="title desc">
  <title id="title">Stir-fried with Ginger with Fish</title>
  <desc id="desc">Generated recipe cover for Stir-fried with Ginger with Fish.</desc>
  <defs>
    <linearGradient id="bg" x1="0" y1="0" x2="1" y2="1">
      <stop offset="0%" stop-color="#7a2f20"/>
      <stop offset="100%" stop-color="#d88a44"/>
    </linearGradient>
    <linearGradient id="panelGlow" x1="0" y1="0" x2="1" y2="0">
      <stop offset="0%" stop-color="#9bd1d8" stop-opacity="0.78"/>
      <stop offset="100%" stop-color="#f6d3a2" stop-opacity="0.18"/>
    </linearGradient>
    <filter id="shadow" x="-20%" y="-20%" width="140%" height="140%">
      <feDropShadow dx="0" dy="18" stdDeviation="24" flood-color="rgba(27, 10, 5, 0.45)"/>
    </filter>
  </defs>

  <rect width="1200" height="900" rx="48" fill="url(#bg)"/>
  <rect x="42" y="42" width="1116" height="816" rx="36" fill="none" stroke="rgba(255, 245, 233, 0.22)" stroke-width="2"/>

  <g opacity="0.16">
    <circle cx="442" cy="371" r="10" fill="#9bd1d8" opacity="0.35"/><circle cx="443" cy="372" r="11" fill="#9bd1d8" opacity="0.42"/><circle cx="444" cy="373" r="12" fill="#9bd1d8" opacity="0.21"/><circle cx="445" cy="374" r="13" fill="#9bd1d8" opacity="0.28"/><circle cx="446" cy="375" r="14" fill="#9bd1d8" opacity="0.35"/><circle cx="447" cy="376" r="15" fill="#9bd1d8" opacity="0.42"/><circle cx="448" cy="377" r="16" fill="#9bd1d8" opacity="0.21"/><circle cx="449" cy="378" r="6" fill="#9bd1d8" opacity="0.28"/><circle cx="450" cy="379" r="7" fill="#9bd1d8" opacity="0.35"/><circle cx="451" cy="380" r="8" fill="#9bd1d8" opacity="0.42"/><circle cx="473" cy="402" r="8" fill="#9bd1d8" opacity="0.21"/><circle cx="474" cy="403" r="9" fill="#9bd1d8" opacity="0.28"/><circle cx="475" cy="404" r="10" fill="#9bd1d8" opacity="0.35"/><circle cx="476" cy="405" r="11" fill="#9bd1d8" opacity="0.42"/><circle cx="477" cy="406" r="12" fill="#9bd1d8" opacity="0.21"/><circle cx="478" cy="407" r="13" fill="#9bd1d8" opacity="0.28"/>
  </g>

  <g transform="translate(820 170) rotate(1)" filter="url(#shadow)">
    <ellipse cx="0" cy="0" rx="210" ry="160" fill="url(#panelGlow)"/>
    <ellipse cx="0" cy="0" rx="138" ry="104" fill="rgba(35, 15, 10, 0.34)"/>
    <path d="M -92 0 C -48 -78, 52 -74, 96 0 C 46 70, -44 82, -92 0 Z" fill="#9bd1d8" opacity="0.72"/>
    <path d="M -38 -60 C 20 -48, 58 18, 14 64 C -44 56, -72 -10, -38 -60 Z" fill="#f6d3a2" opacity="0.52"/>
  </g>

  <circle cx="849" cy="126" r="104" fill="#9bd1d8" opacity="0.12"/>
  <circle cx="931" cy="452" r="148" fill="#f6d3a2" opacity="0.10"/>

  <g filter="url(#shadow)">
    <rect x="72" y="108" width="268" height="52" rx="26" fill="rgba(35, 15, 10, 0.34)"/>
    <text x="102" y="141" font-family="'Trebuchet MS', 'Segoe UI', sans-serif" font-size="26" font-weight="700" fill="#fff5ea">STIR-FRY</text>

    <rect x="72" y="656" width="304" height="58" rx="29" fill="#9bd1d8"/>
    <text x="104" y="693" font-family="'Trebuchet MS', 'Segoe UI', sans-serif" font-size="28" font-weight="700" fill="#2f1a0f">FISH</text>
  </g>

  <g transform="translate(78 214)">
    <text font-family="Georgia, 'Times New Roman', serif" font-size="82" font-weight="700" fill="#fff5ea">
      <tspan x="0" dy="0">Stir-fried with</tspan><tspan x="0" dy="86">Ginger with Fish</tspan>
    </text>
    <text x="0" y="446" font-family="'Trebuchet MS', 'Segoe UI', sans-serif" font-size="28" fill="rgba(255, 245, 233, 0.86)">Prep 22 min | Cook 10 min | Serves 3</text>
    <text x="0" y="498" font-family="'Trebuchet MS', 'Segoe UI', sans-serif" font-size="24" fill="rgba(255, 245, 233, 0.86)">Style: Ginger | Rating 4.7</text>
  </g>
</svg>
