<?xml version="1.0" encoding="UTF-8"?>
<svg xmlns="http://www.w3.org/2000/svg" width="1200" height="900" viewBox="0 0 1200 900" role="img" aria-labelledby="title desc">
  <title id="title">Stir-fried Sweet &amp; Sour with Squid</title>
  <desc id="desc">Generated recipe cover for Stir-fried Sweet &amp; Sour with Squid.</desc>
  <defs>
    <linearGradient id="bg" x1="0" y1="0" x2="1" y2="1">
      <stop offset="0%" stop-color="#7a2f20"/>
      <stop offset="100%" stop-color="#d88a44"/>
    </linearGradient>
    <linearGradient id="panelGlow" x1="0" y1="0" x2="1" y2="0">
      <stop offset="0%" stop-color="#d7dfee" stop-opacity="0.78"/>
      <stop offset="100%" stop-color="#f6d3a2" stop-opacity="0.18"/>
    </linearGradient>
    <filter id="shadow" x="-20%" y="-20%" width="140%" height="140%">
      <feDropShadow dx="0" dy="18" stdDeviation="24" flood-color="rgba(27, 10, 5, 0.45)"/>
    </filter>
  </defs>

  <rect width="1200" height="900" rx="48" fill="url(#bg)"/>
  <rect x="42" y="42" width="1116" height="816" rx="36" fill="none" stroke="rgba(255, 245, 233, 0.22)" stroke-width="2"/>

  <g opacity="0.16">
    <circle cx="799" cy="418" r="13" fill="#d7dfee" opacity="0.42"/><circle cx="800" cy="419" r="14" fill="#d7dfee" opacity="0.21"/><circle cx="801" cy="420" r="15" fill="#d7dfee" opacity="0.28"/><circle cx="802" cy="421" r="16" fill="#d7dfee" opacity="0.35"/><circle cx="803" cy="422" r="6" fill="#d7dfee" opacity="0.42"/><circle cx="804" cy="423" r="7" fill="#d7dfee" opacity="0.21"/><circle cx="805" cy="424" r="8" fill="#d7dfee" opacity="0.28"/><circle cx="806" cy="425" r="9" fill="#d7dfee" opacity="0.35"/><circle cx="807" cy="426" r="10" fill="#d7dfee" opacity="0.42"/><circle cx="808" cy="427" r="11" fill="#d7dfee" opacity="0.21"/><circle cx="830" cy="449" r="11" fill="#d7dfee" opacity="0.28"/><circle cx="831" cy="450" r="12" fill="#d7dfee" opacity="0.35"/><circle cx="832" cy="451" r="13" fill="#d7dfee" opacity="0.42"/><circle cx="833" cy="452" r="14" fill="#d7dfee" opacity="0.21"/><circle cx="834" cy="453" r="15" fill="#d7dfee" opacity="0.28"/><circle cx="835" cy="454" r="16" fill="#d7dfee" opacity="0.35"/>
  </g>

  <g transform="translate(820 170) rotate(-15)" filter="url(#shadow)">
    <ellipse cx="0" cy="0" rx="210" ry="160" fill="url(#panelGlow)"/>
    <ellipse cx="0" cy="0" rx="138" ry="104" fill="rgba(35, 15, 10, 0.34)"/>
    <path d="M -92 0 C -48 -78, 52 -74, 96 0 C 46 70, -44 82, -92 0 Z" fill="#d7dfee" opacity="0.72"/>
    <path d="M -38 -60 C 20 -48, 58 18, 14 64 C -44 56, -72 -10, -38 -60 Z" fill="#f6d3a2" opacity="0.52"/>
  </g>

  <circle cx="747" cy="113" r="104" fill="#d7dfee" opacity="0.12"/>
  <circle cx="829" cy="350" r="148" fill="#f6d3a2" opacity="0.10"/>

  <g filter="url(#shadow)">
    <rect x="72" y="108" width="268" height="52" rx="26" fill="rgba(35, 15, 10, 0.34)"/>
    <text x="102" y="141" font-family="'Trebuchet MS', 'Segoe UI', sans-serif" font-size="26" font-weight="700" fill="#fff5ea">STIR-FRY</text>

    <rect x="72" y="626" width="304" height="58" rx="29" fill="#d7dfee"/>
    <text x="104" y="663" font-family="'Trebuchet MS', 'Segoe UI', sans-serif" font-size="28" font-weight="700" fill="#2f1a0f">SQUID</text>
  </g>

  <g transform="translate(78 214)">
    <text font-family="Georgia, 'Times New Roman', serif" font-size="82" font-weight="700" fill="#fff5ea">
      <tspan x="0" dy="0">Stir-fried Sweet &amp;</tspan><tspan x="0" dy="86">Sour with Squid</tspan>
    </text>
    <text x="0" y="446" font-family="'Trebuchet MS', 'Segoe UI', sans-serif" font-size="28" fill="rgba(255, 245, 233, 0.86)">Prep 14 min | Cook 25 min | Serves 2</text>
    <text x="0" y="498" font-family="'Trebuchet MS', 'Segoe UI', sans-serif" font-size="24" fill="rgba(255, 245, 233, 0.86)">Style: Sweet &amp; Sour | Rating 4.2</text>
  </g>
</svg>
