<?xml version="1.0" encoding="UTF-8"?>
<svg xmlns="http://www.w3.org/2000/svg" width="1200" height="900" viewBox="0 0 1200 900" role="img" aria-labelledby="title desc">
  <title id="title">Stir-fried with Ginger with Tofu</title>
  <desc id="desc">Generated recipe cover for Stir-fried with Ginger with Tofu.</desc>
  <defs>
    <linearGradient id="bg" x1="0" y1="0" x2="1" y2="1">
      <stop offset="0%" stop-color="#7a2f20"/>
      <stop offset="100%" stop-color="#d88a44"/>
    </linearGradient>
    <linearGradient id="panelGlow" x1="0" y1="0" x2="1" y2="0">
      <stop offset="0%" stop-color="#ede1b0" stop-opacity="0.78"/>
      <stop offset="100%" stop-color="#f6d3a2" stop-opacity="0.18"/>
    </linearGradient>
    <filter id="shadow" x="-20%" y="-20%" width="140%" height="140%">
      <feDropShadow dx="0" dy="18" stdDeviation="24" flood-color="rgba(27, 10, 5, 0.45)"/>
    </filter>
  </defs>

  <rect width="1200" height="900" rx="48" fill="url(#bg)"/>
  <rect x="42" y="42" width="1116" height="816" rx="36" fill="none" stroke="rgba(255, 245, 233, 0.22)" stroke-width="2"/>

  <g opacity="0.16">
    <circle cx="889" cy="531" r="16" fill="#ede1b0" opacity="0.21"/><circle cx="890" cy="532" r="6" fill="#ede1b0" opacity="0.28"/><circle cx="891" cy="533" r="7" fill="#ede1b0" opacity="0.35"/><circle cx="892" cy="534" r="8" fill="#ede1b0" opacity="0.42"/><circle cx="893" cy="535" r="9" fill="#ede1b0" opacity="0.21"/><circle cx="894" cy="536" r="10" fill="#ede1b0" opacity="0.28"/><circle cx="895" cy="537" r="11" fill="#ede1b0" opacity="0.35"/><circle cx="896" cy="538" r="12" fill="#ede1b0" opacity="0.42"/><circle cx="897" cy="539" r="13" fill="#ede1b0" opacity="0.21"/><circle cx="898" cy="540" r="14" fill="#ede1b0" opacity="0.28"/><circle cx="920" cy="562" r="14" fill="#ede1b0" opacity="0.35"/><circle cx="921" cy="563" r="15" fill="#ede1b0" opacity="0.42"/><circle cx="922" cy="564" r="16" fill="#ede1b0" opacity="0.21"/><circle cx="923" cy="565" r="6" fill="#ede1b0" opacity="0.28"/><circle cx="924" cy="566" r="7" fill="#ede1b0" opacity="0.35"/><circle cx="925" cy="567" r="8" fill="#ede1b0" opacity="0.42"/>
  </g>

  <g transform="translate(820 170) rotate(-5)" filter="url(#shadow)">
    <ellipse cx="0" cy="0" rx="210" ry="160" fill="url(#panelGlow)"/>
    <ellipse cx="0" cy="0" rx="138" ry="104" fill="rgba(35, 15, 10, 0.34)"/>
    <path d="M -92 0 C -48 -78, 52 -74, 96 0 C 46 70, -44 82, -92 0 Z" fill="#ede1b0" opacity="0.72"/>
    <path d="M -38 -60 C 20 -48, 58 18, 14 64 C -44 56, -72 -10, -38 -60 Z" fill="#f6d3a2" opacity="0.52"/>
  </g>

  <circle cx="998" cy="277" r="104" fill="#ede1b0" opacity="0.12"/>
  <circle cx="1080" cy="601" r="148" fill="#f6d3a2" opacity="0.10"/>

  <g filter="url(#shadow)">
    <rect x="72" y="108" width="268" height="52" rx="26" fill="rgba(35, 15, 10, 0.34)"/>
    <text x="102" y="141" font-family="'Trebuchet MS', 'Segoe UI', sans-serif" font-size="26" font-weight="700" fill="#fff5ea">STIR-FRY</text>

    <rect x="72" y="643" width="304" height="58" rx="29" fill="#ede1b0"/>
    <text x="104" y="680" font-family="'Trebuchet MS', 'Segoe UI', sans-serif" font-size="28" font-weight="700" fill="#2f1a0f">TOFU</text>
  </g>

  <g transform="translate(78 214)">
    <text font-family="Georgia, 'Times New Roman', serif" font-size="82" font-weight="700" fill="#fff5ea">
      <tspan x="0" dy="0">Stir-fried with</tspan><tspan x="0" dy="86">Ginger with Tofu</tspan>
    </text>
    <text x="0" y="446" font-family="'Trebuchet MS', 'Segoe UI', sans-serif" font-size="28" fill="rgba(255, 245, 233, 0.86)">Prep 14 min | Cook 24 min | Serves 3</text>
    <text x="0" y="498" font-family="'Trebuchet MS', 'Segoe UI', sans-serif" font-size="24" fill="rgba(255, 245, 233, 0.86)">Style: Ginger | Rating 5.0</text>
  </g>
</svg>
