<?xml version="1.0" encoding="UTF-8"?>
<svg xmlns="http://www.w3.org/2000/svg" width="1200" height="900" viewBox="0 0 1200 900" role="img" aria-labelledby="title desc">
  <title id="title">Stir-fried with Ginger with Squid</title>
  <desc id="desc">Generated recipe cover for Stir-fried with Ginger with Squid.</desc>
  <defs>
    <linearGradient id="bg" x1="0" y1="0" x2="1" y2="1">
      <stop offset="0%" stop-color="#7a2f20"/>
      <stop offset="100%" stop-color="#d88a44"/>
    </linearGradient>
    <linearGradient id="panelGlow" x1="0" y1="0" x2="1" y2="0">
      <stop offset="0%" stop-color="#d7dfee" stop-opacity="0.78"/>
      <stop offset="100%" stop-color="#f6d3a2" stop-opacity="0.18"/>
    </linearGradient>
    <filter id="shadow" x="-20%" y="-20%" width="140%" height="140%">
      <feDropShadow dx="0" dy="18" stdDeviation="24" flood-color="rgba(27, 10, 5, 0.45)"/>
    </filter>
  </defs>

  <rect width="1200" height="900" rx="48" fill="url(#bg)"/>
  <rect x="42" y="42" width="1116" height="816" rx="36" fill="none" stroke="rgba(255, 245, 233, 0.22)" stroke-width="2"/>

  <g opacity="0.16">
    <circle cx="285" cy="287" r="14" fill="#d7dfee" opacity="0.31"/><circle cx="286" cy="288" r="15" fill="#d7dfee" opacity="0.38"/><circle cx="287" cy="289" r="16" fill="#d7dfee" opacity="0.45"/><circle cx="288" cy="290" r="6" fill="#d7dfee" opacity="0.24"/><circle cx="289" cy="291" r="7" fill="#d7dfee" opacity="0.31"/><circle cx="290" cy="292" r="8" fill="#d7dfee" opacity="0.38"/><circle cx="291" cy="293" r="9" fill="#d7dfee" opacity="0.45"/><circle cx="292" cy="294" r="10" fill="#d7dfee" opacity="0.24"/><circle cx="293" cy="295" r="11" fill="#d7dfee" opacity="0.31"/><circle cx="294" cy="296" r="12" fill="#d7dfee" opacity="0.38"/><circle cx="316" cy="318" r="12" fill="#d7dfee" opacity="0.45"/><circle cx="317" cy="319" r="13" fill="#d7dfee" opacity="0.24"/><circle cx="318" cy="320" r="14" fill="#d7dfee" opacity="0.31"/><circle cx="319" cy="321" r="15" fill="#d7dfee" opacity="0.38"/><circle cx="320" cy="322" r="16" fill="#d7dfee" opacity="0.45"/><circle cx="321" cy="323" r="6" fill="#d7dfee" opacity="0.24"/>
  </g>

  <g transform="translate(820 170) rotate(-17)" filter="url(#shadow)">
    <ellipse cx="0" cy="0" rx="210" ry="160" fill="url(#panelGlow)"/>
    <ellipse cx="0" cy="0" rx="138" ry="104" fill="rgba(35, 15, 10, 0.34)"/>
    <path d="M -92 0 C -48 -78, 52 -74, 96 0 C 46 70, -44 82, -92 0 Z" fill="#d7dfee" opacity="0.72"/>
    <path d="M -38 -60 C 20 -48, 58 18, 14 64 C -44 56, -72 -10, -38 -60 Z" fill="#f6d3a2" opacity="0.52"/>
  </g>

  <circle cx="889" cy="238" r="104" fill="#d7dfee" opacity="0.12"/>
  <circle cx="971" cy="492" r="148" fill="#f6d3a2" opacity="0.10"/>

  <g filter="url(#shadow)">
    <rect x="72" y="108" width="268" height="52" rx="26" fill="rgba(35, 15, 10, 0.34)"/>
    <text x="102" y="141" font-family="'Trebuchet MS', 'Segoe UI', sans-serif" font-size="26" font-weight="700" fill="#fff5ea">STIR-FRY</text>

    <rect x="72" y="659" width="304" height="58" rx="29" fill="#d7dfee"/>
    <text x="104" y="696" font-family="'Trebuchet MS', 'Segoe UI', sans-serif" font-size="28" font-weight="700" fill="#2f1a0f">SQUID</text>
  </g>

  <g transform="translate(78 214)">
    <text font-family="Georgia, 'Times New Roman', serif" font-size="82" font-weight="700" fill="#fff5ea">
      <tspan x="0" dy="0">Stir-fried with</tspan><tspan x="0" dy="86">Ginger with Squid</tspan>
    </text>
    <text x="0" y="446" font-family="'Trebuchet MS', 'Segoe UI', sans-serif" font-size="28" fill="rgba(255, 245, 233, 0.86)">Prep 11 min | Cook 29 min | Serves 4</text>
    <text x="0" y="498" font-family="'Trebuchet MS', 'Segoe UI', sans-serif" font-size="24" fill="rgba(255, 245, 233, 0.86)">Style: Ginger | Rating 4.4</text>
  </g>
</svg>
