<?xml version="1.0" encoding="UTF-8"?>
<svg xmlns="http://www.w3.org/2000/svg" width="1200" height="900" viewBox="0 0 1200 900" role="img" aria-labelledby="title desc">
  <title id="title">Noodle Soup with Beef</title>
  <desc id="desc">Generated recipe cover for Noodle Soup with Beef.</desc>
  <defs>
    <linearGradient id="bg" x1="0" y1="0" x2="1" y2="1">
      <stop offset="0%" stop-color="#24435d"/>
      <stop offset="100%" stop-color="#73a1b9"/>
    </linearGradient>
    <linearGradient id="panelGlow" x1="0" y1="0" x2="1" y2="0">
      <stop offset="0%" stop-color="#f2b09b" stop-opacity="0.78"/>
      <stop offset="100%" stop-color="#cce9f1" stop-opacity="0.18"/>
    </linearGradient>
    <filter id="shadow" x="-20%" y="-20%" width="140%" height="140%">
      <feDropShadow dx="0" dy="18" stdDeviation="24" flood-color="rgba(10, 16, 22, 0.45)"/>
    </filter>
  </defs>

  <rect width="1200" height="900" rx="48" fill="url(#bg)"/>
  <rect x="42" y="42" width="1116" height="816" rx="36" fill="none" stroke="rgba(240, 248, 252, 0.22)" stroke-width="2"/>

  <g opacity="0.16">
    <circle cx="683" cy="343" r="15" fill="#f2b09b" opacity="0.39"/><circle cx="684" cy="344" r="16" fill="#f2b09b" opacity="0.18"/><circle cx="685" cy="345" r="6" fill="#f2b09b" opacity="0.25"/><circle cx="686" cy="346" r="7" fill="#f2b09b" opacity="0.32"/><circle cx="687" cy="347" r="8" fill="#f2b09b" opacity="0.39"/><circle cx="688" cy="348" r="9" fill="#f2b09b" opacity="0.18"/><circle cx="689" cy="349" r="10" fill="#f2b09b" opacity="0.25"/><circle cx="690" cy="350" r="11" fill="#f2b09b" opacity="0.32"/><circle cx="691" cy="351" r="12" fill="#f2b09b" opacity="0.39"/><circle cx="692" cy="352" r="13" fill="#f2b09b" opacity="0.18"/><circle cx="714" cy="374" r="13" fill="#f2b09b" opacity="0.25"/><circle cx="715" cy="375" r="14" fill="#f2b09b" opacity="0.32"/><circle cx="716" cy="376" r="15" fill="#f2b09b" opacity="0.39"/><circle cx="717" cy="377" r="16" fill="#f2b09b" opacity="0.18"/><circle cx="718" cy="378" r="6" fill="#f2b09b" opacity="0.25"/><circle cx="719" cy="379" r="7" fill="#f2b09b" opacity="0.32"/>
  </g>

  <g transform="translate(820 170) rotate(-16)" filter="url(#shadow)">
    <ellipse cx="0" cy="0" rx="210" ry="160" fill="url(#panelGlow)"/>
    <ellipse cx="0" cy="0" rx="138" ry="104" fill="rgba(12, 24, 33, 0.32)"/>
    <path d="M -92 0 C -48 -78, 52 -74, 96 0 C 46 70, -44 82, -92 0 Z" fill="#f2b09b" opacity="0.72"/>
    <path d="M -38 -60 C 20 -48, 58 18, 14 64 C -44 56, -72 -10, -38 -60 Z" fill="#cce9f1" opacity="0.52"/>
  </g>

  <circle cx="820" cy="271" r="104" fill="#f2b09b" opacity="0.12"/>
  <circle cx="902" cy="423" r="148" fill="#cce9f1" opacity="0.10"/>

  <g filter="url(#shadow)">
    <rect x="72" y="108" width="268" height="52" rx="26" fill="rgba(12, 24, 33, 0.32)"/>
    <text x="102" y="141" font-family="'Trebuchet MS', 'Segoe UI', sans-serif" font-size="26" font-weight="700" fill="#f4fbff">NOODLES</text>

    <rect x="72" y="673" width="304" height="58" rx="29" fill="#f2b09b"/>
    <text x="104" y="710" font-family="'Trebuchet MS', 'Segoe UI', sans-serif" font-size="28" font-weight="700" fill="#2f1a0f">BEEF</text>
  </g>

  <g transform="translate(78 214)">
    <text font-family="Georgia, 'Times New Roman', serif" font-size="82" font-weight="700" fill="#f4fbff">
      <tspan x="0" dy="0">Noodle Soup with</tspan><tspan x="0" dy="86">Beef</tspan>
    </text>
    <text x="0" y="446" font-family="'Trebuchet MS', 'Segoe UI', sans-serif" font-size="28" fill="rgba(244, 251, 255, 0.84)">Prep 11 min | Cook 22 min | Serves 4</text>
    <text x="0" y="498" font-family="'Trebuchet MS', 'Segoe UI', sans-serif" font-size="24" fill="rgba(244, 251, 255, 0.84)">Style: Noodle Soup | Rating 4.2</text>
  </g>
</svg>
