<?xml version="1.0" encoding="UTF-8"?>
<svg xmlns="http://www.w3.org/2000/svg" width="1200" height="900" viewBox="0 0 1200 900" role="img" aria-labelledby="title desc">
  <title id="title">Noodle Soup with Chicken</title>
  <desc id="desc">Generated recipe cover for Noodle Soup with Chicken.</desc>
  <defs>
    <linearGradient id="bg" x1="0" y1="0" x2="1" y2="1">
      <stop offset="0%" stop-color="#24435d"/>
      <stop offset="100%" stop-color="#73a1b9"/>
    </linearGradient>
    <linearGradient id="panelGlow" x1="0" y1="0" x2="1" y2="0">
      <stop offset="0%" stop-color="#f3d7ab" stop-opacity="0.78"/>
      <stop offset="100%" stop-color="#cce9f1" stop-opacity="0.18"/>
    </linearGradient>
    <filter id="shadow" x="-20%" y="-20%" width="140%" height="140%">
      <feDropShadow dx="0" dy="18" stdDeviation="24" flood-color="rgba(10, 16, 22, 0.45)"/>
    </filter>
  </defs>

  <rect width="1200" height="900" rx="48" fill="url(#bg)"/>
  <rect x="42" y="42" width="1116" height="816" rx="36" fill="none" stroke="rgba(240, 248, 252, 0.22)" stroke-width="2"/>

  <g opacity="0.16">
    <circle cx="935" cy="562" r="14" fill="#f3d7ab" opacity="0.26"/><circle cx="936" cy="563" r="15" fill="#f3d7ab" opacity="0.33"/><circle cx="937" cy="564" r="16" fill="#f3d7ab" opacity="0.4"/><circle cx="938" cy="565" r="6" fill="#f3d7ab" opacity="0.19"/><circle cx="939" cy="566" r="7" fill="#f3d7ab" opacity="0.26"/><circle cx="940" cy="567" r="8" fill="#f3d7ab" opacity="0.33"/><circle cx="941" cy="568" r="9" fill="#f3d7ab" opacity="0.4"/><circle cx="942" cy="569" r="10" fill="#f3d7ab" opacity="0.19"/><circle cx="943" cy="570" r="11" fill="#f3d7ab" opacity="0.26"/><circle cx="944" cy="571" r="12" fill="#f3d7ab" opacity="0.33"/><circle cx="966" cy="593" r="12" fill="#f3d7ab" opacity="0.4"/><circle cx="967" cy="594" r="13" fill="#f3d7ab" opacity="0.19"/><circle cx="968" cy="595" r="14" fill="#f3d7ab" opacity="0.26"/><circle cx="969" cy="596" r="15" fill="#f3d7ab" opacity="0.33"/><circle cx="970" cy="597" r="16" fill="#f3d7ab" opacity="0.4"/><circle cx="971" cy="598" r="6" fill="#f3d7ab" opacity="0.19"/>
  </g>

  <g transform="translate(820 170) rotate(-15)" filter="url(#shadow)">
    <ellipse cx="0" cy="0" rx="210" ry="160" fill="url(#panelGlow)"/>
    <ellipse cx="0" cy="0" rx="138" ry="104" fill="rgba(12, 24, 33, 0.32)"/>
    <path d="M -92 0 C -48 -78, 52 -74, 96 0 C 46 70, -44 82, -92 0 Z" fill="#f3d7ab" opacity="0.72"/>
    <path d="M -38 -60 C 20 -48, 58 18, 14 64 C -44 56, -72 -10, -38 -60 Z" fill="#cce9f1" opacity="0.52"/>
  </g>

  <circle cx="1009" cy="284" r="104" fill="#f3d7ab" opacity="0.12"/>
  <circle cx="1091" cy="612" r="148" fill="#cce9f1" opacity="0.10"/>

  <g filter="url(#shadow)">
    <rect x="72" y="108" width="268" height="52" rx="26" fill="rgba(12, 24, 33, 0.32)"/>
    <text x="102" y="141" font-family="'Trebuchet MS', 'Segoe UI', sans-serif" font-size="26" font-weight="700" fill="#f4fbff">NOODLES</text>

    <rect x="72" y="682" width="304" height="58" rx="29" fill="#f3d7ab"/>
    <text x="104" y="719" font-family="'Trebuchet MS', 'Segoe UI', sans-serif" font-size="28" font-weight="700" fill="#2f1a0f">CHICKEN</text>
  </g>

  <g transform="translate(78 214)">
    <text font-family="Georgia, 'Times New Roman', serif" font-size="82" font-weight="700" fill="#f4fbff">
      <tspan x="0" dy="0">Noodle Soup with</tspan><tspan x="0" dy="86">Chicken</tspan>
    </text>
    <text x="0" y="446" font-family="'Trebuchet MS', 'Segoe UI', sans-serif" font-size="28" fill="rgba(244, 251, 255, 0.84)">Prep 24 min | Cook 29 min | Serves 3</text>
    <text x="0" y="498" font-family="'Trebuchet MS', 'Segoe UI', sans-serif" font-size="24" fill="rgba(244, 251, 255, 0.84)">Style: Noodle Soup | Rating 5.0</text>
  </g>
</svg>
