<?xml version="1.0" encoding="UTF-8"?>
<svg xmlns="http://www.w3.org/2000/svg" width="1200" height="900" viewBox="0 0 1200 900" role="img" aria-labelledby="title desc">
  <title id="title">Curry with Chicken</title>
  <desc id="desc">Generated recipe cover for Curry with Chicken.</desc>
  <defs>
    <linearGradient id="bg" x1="0" y1="0" x2="1" y2="1">
      <stop offset="0%" stop-color="#23443c"/>
      <stop offset="100%" stop-color="#6ea17b"/>
    </linearGradient>
    <linearGradient id="panelGlow" x1="0" y1="0" x2="1" y2="0">
      <stop offset="0%" stop-color="#f3d7ab" stop-opacity="0.78"/>
      <stop offset="100%" stop-color="#d2ecb6" stop-opacity="0.18"/>
    </linearGradient>
    <filter id="shadow" x="-20%" y="-20%" width="140%" height="140%">
      <feDropShadow dx="0" dy="18" stdDeviation="24" flood-color="rgba(8, 19, 17, 0.45)"/>
    </filter>
  </defs>

  <rect width="1200" height="900" rx="48" fill="url(#bg)"/>
  <rect x="42" y="42" width="1116" height="816" rx="36" fill="none" stroke="rgba(239, 248, 237, 0.22)" stroke-width="2"/>

  <g opacity="0.16">
    <circle cx="704" cy="546" r="9" fill="#f3d7ab" opacity="0.2"/><circle cx="705" cy="547" r="10" fill="#f3d7ab" opacity="0.27"/><circle cx="706" cy="548" r="11" fill="#f3d7ab" opacity="0.34"/><circle cx="707" cy="549" r="12" fill="#f3d7ab" opacity="0.41"/><circle cx="708" cy="550" r="13" fill="#f3d7ab" opacity="0.2"/><circle cx="709" cy="551" r="14" fill="#f3d7ab" opacity="0.27"/><circle cx="710" cy="552" r="15" fill="#f3d7ab" opacity="0.34"/><circle cx="711" cy="553" r="16" fill="#f3d7ab" opacity="0.41"/><circle cx="712" cy="554" r="6" fill="#f3d7ab" opacity="0.2"/><circle cx="713" cy="555" r="7" fill="#f3d7ab" opacity="0.27"/><circle cx="735" cy="577" r="7" fill="#f3d7ab" opacity="0.34"/><circle cx="736" cy="578" r="8" fill="#f3d7ab" opacity="0.41"/><circle cx="737" cy="579" r="9" fill="#f3d7ab" opacity="0.2"/><circle cx="738" cy="580" r="10" fill="#f3d7ab" opacity="0.27"/><circle cx="739" cy="581" r="11" fill="#f3d7ab" opacity="0.34"/><circle cx="740" cy="582" r="12" fill="#f3d7ab" opacity="0.41"/>
  </g>

  <g transform="translate(820 170) rotate(2)" filter="url(#shadow)">
    <ellipse cx="0" cy="0" rx="210" ry="160" fill="url(#panelGlow)"/>
    <ellipse cx="0" cy="0" rx="138" ry="104" fill="rgba(11, 30, 26, 0.34)"/>
    <path d="M -92 0 C -48 -78, 52 -74, 96 0 C 46 70, -44 82, -92 0 Z" fill="#f3d7ab" opacity="0.72"/>
    <path d="M -38 -60 C 20 -48, 58 18, 14 64 C -44 56, -72 -10, -38 -60 Z" fill="#d2ecb6" opacity="0.52"/>
  </g>

  <circle cx="948" cy="244" r="104" fill="#f3d7ab" opacity="0.12"/>
  <circle cx="1030" cy="551" r="148" fill="#d2ecb6" opacity="0.10"/>

  <g filter="url(#shadow)">
    <rect x="72" y="108" width="268" height="52" rx="26" fill="rgba(11, 30, 26, 0.34)"/>
    <text x="102" y="141" font-family="'Trebuchet MS', 'Segoe UI', sans-serif" font-size="26" font-weight="700" fill="#f3fbef">SOUP &amp; STEW</text>

    <rect x="72" y="626" width="304" height="58" rx="29" fill="#f3d7ab"/>
    <text x="104" y="663" font-family="'Trebuchet MS', 'Segoe UI', sans-serif" font-size="28" font-weight="700" fill="#2f1a0f">CHICKEN</text>
  </g>

  <g transform="translate(78 214)">
    <text font-family="Georgia, 'Times New Roman', serif" font-size="82" font-weight="700" fill="#f3fbef">
      <tspan x="0" dy="0">Curry with Chicken</tspan>
    </text>
    <text x="0" y="360" font-family="'Trebuchet MS', 'Segoe UI', sans-serif" font-size="28" fill="rgba(243, 251, 239, 0.84)">Prep 20 min | Cook 28 min | Serves 3</text>
    <text x="0" y="412" font-family="'Trebuchet MS', 'Segoe UI', sans-serif" font-size="24" fill="rgba(243, 251, 239, 0.84)">Style: Curry | Rating 4.6</text>
  </g>
</svg>
