<?xml version="1.0" encoding="UTF-8"?>
<svg xmlns="http://www.w3.org/2000/svg" width="1200" height="900" viewBox="0 0 1200 900" role="img" aria-labelledby="title desc">
  <title id="title">Sour Soup with Shrimp</title>
  <desc id="desc">Generated recipe cover for Sour Soup with Shrimp.</desc>
  <defs>
    <linearGradient id="bg" x1="0" y1="0" x2="1" y2="1">
      <stop offset="0%" stop-color="#23443c"/>
      <stop offset="100%" stop-color="#6ea17b"/>
    </linearGradient>
    <linearGradient id="panelGlow" x1="0" y1="0" x2="1" y2="0">
      <stop offset="0%" stop-color="#ffb08a" stop-opacity="0.78"/>
      <stop offset="100%" stop-color="#d2ecb6" stop-opacity="0.18"/>
    </linearGradient>
    <filter id="shadow" x="-20%" y="-20%" width="140%" height="140%">
      <feDropShadow dx="0" dy="18" stdDeviation="24" flood-color="rgba(8, 19, 17, 0.45)"/>
    </filter>
  </defs>

  <rect width="1200" height="900" rx="48" fill="url(#bg)"/>
  <rect x="42" y="42" width="1116" height="816" rx="36" fill="none" stroke="rgba(239, 248, 237, 0.22)" stroke-width="2"/>

  <g opacity="0.16">
    <circle cx="603" cy="330" r="13" fill="#ffb08a" opacity="0.42"/><circle cx="604" cy="331" r="14" fill="#ffb08a" opacity="0.21"/><circle cx="605" cy="332" r="15" fill="#ffb08a" opacity="0.28"/><circle cx="606" cy="333" r="16" fill="#ffb08a" opacity="0.35"/><circle cx="607" cy="334" r="6" fill="#ffb08a" opacity="0.42"/><circle cx="608" cy="335" r="7" fill="#ffb08a" opacity="0.21"/><circle cx="609" cy="336" r="8" fill="#ffb08a" opacity="0.28"/><circle cx="610" cy="337" r="9" fill="#ffb08a" opacity="0.35"/><circle cx="611" cy="338" r="10" fill="#ffb08a" opacity="0.42"/><circle cx="612" cy="339" r="11" fill="#ffb08a" opacity="0.21"/><circle cx="634" cy="361" r="11" fill="#ffb08a" opacity="0.28"/><circle cx="635" cy="362" r="12" fill="#ffb08a" opacity="0.35"/><circle cx="636" cy="363" r="13" fill="#ffb08a" opacity="0.42"/><circle cx="637" cy="364" r="14" fill="#ffb08a" opacity="0.21"/><circle cx="638" cy="365" r="15" fill="#ffb08a" opacity="0.28"/><circle cx="639" cy="366" r="16" fill="#ffb08a" opacity="0.35"/>
  </g>

  <g transform="translate(820 170) rotate(-5)" filter="url(#shadow)">
    <ellipse cx="0" cy="0" rx="210" ry="160" fill="url(#panelGlow)"/>
    <ellipse cx="0" cy="0" rx="138" ry="104" fill="rgba(11, 30, 26, 0.34)"/>
    <path d="M -92 0 C -48 -78, 52 -74, 96 0 C 46 70, -44 82, -92 0 Z" fill="#ffb08a" opacity="0.72"/>
    <path d="M -38 -60 C 20 -48, 58 18, 14 64 C -44 56, -72 -10, -38 -60 Z" fill="#d2ecb6" opacity="0.52"/>
  </g>

  <circle cx="813" cy="182" r="104" fill="#ffb08a" opacity="0.12"/>
  <circle cx="895" cy="416" r="148" fill="#d2ecb6" opacity="0.10"/>

  <g filter="url(#shadow)">
    <rect x="72" y="108" width="268" height="52" rx="26" fill="rgba(11, 30, 26, 0.34)"/>
    <text x="102" y="141" font-family="'Trebuchet MS', 'Segoe UI', sans-serif" font-size="26" font-weight="700" fill="#f3fbef">SOUP &amp; STEW</text>

    <rect x="72" y="673" width="304" height="58" rx="29" fill="#ffb08a"/>
    <text x="104" y="710" font-family="'Trebuchet MS', 'Segoe UI', sans-serif" font-size="28" font-weight="700" fill="#2f1a0f">SHRIMP</text>
  </g>

  <g transform="translate(78 214)">
    <text font-family="Georgia, 'Times New Roman', serif" font-size="82" font-weight="700" fill="#f3fbef">
      <tspan x="0" dy="0">Sour Soup with</tspan><tspan x="0" dy="86">Shrimp</tspan>
    </text>
    <text x="0" y="446" font-family="'Trebuchet MS', 'Segoe UI', sans-serif" font-size="28" fill="rgba(243, 251, 239, 0.84)">Prep 12 min | Cook 21 min | Serves 4</text>
    <text x="0" y="498" font-family="'Trebuchet MS', 'Segoe UI', sans-serif" font-size="24" fill="rgba(243, 251, 239, 0.84)">Style: Sour Soup | Rating 4.8</text>
  </g>
</svg>
